<?xml version="1.0" encoding="UTF-8" standalone="no"?>
<!DOCTYPE svg PUBLIC "-//W3C//DTD SVG 1.1//EN"
 "http://www.w3.org/Graphics/SVG/1.1/DTD/svg11.dtd">
<!-- Generated by graphviz version 2.42.4 (0)
 -->
<!-- Title: G Pages: 1 -->
<svg width="674pt" height="752pt"
 viewBox="0.00 0.00 674.00 752.00" xmlns="http://www.w3.org/2000/svg" xmlns:xlink="http://www.w3.org/1999/xlink">
<g id="graph0" class="graph" transform="scale(1 1) rotate(0) translate(4 748)">
<title>G</title>
<polygon fill="white" stroke="transparent" points="-4,4 -4,-748 670,-748 670,4 -4,4"/>
<g id="clust1" class="cluster">
<title>cluster_repo</title>
<polygon fill="white" stroke="lightgrey" points="40,-445 40,-736 326,-736 326,-445 40,-445"/>
<text text-anchor="middle" x="183" y="-720.8" font-family="Times,serif" font-size="14.00">GitHub Repository</text>
</g>
<g id="clust2" class="cluster">
<title>cluster_vm</title>
<polygon fill="white" stroke="blue" points="8,-10.5 8,-412 308,-412 308,-10.5 8,-10.5"/>
<text text-anchor="middle" x="158" y="-396.8" font-family="Times,serif" font-size="14.00">Debian 13 &#45; monitoring01</text>
</g>
<g id="clust3" class="cluster">
<title>cluster_targets</title>
<polygon fill="white" stroke="darkgreen" points="316,-8 316,-88 658,-88 658,-8 316,-8"/>
<text text-anchor="middle" x="487" y="-72.8" font-family="Times,serif" font-size="14.00">Monitored Infrastructure</text>
</g>
<!-- repo -->
<g id="node1" class="node">
<title>repo</title>
<path fill="lightblue" stroke="black" d="M213.5,-705C213.5,-705 148.5,-705 148.5,-705 142.5,-705 136.5,-699 136.5,-693 136.5,-693 136.5,-681 136.5,-681 136.5,-675 142.5,-669 148.5,-669 148.5,-669 213.5,-669 213.5,-669 219.5,-669 225.5,-675 225.5,-681 225.5,-681 225.5,-693 225.5,-693 225.5,-699 219.5,-705 213.5,-705"/>
<text text-anchor="middle" x="181" y="-690" font-family="Arial" font-size="10.00">monitoring&#45;stack</text>
<text text-anchor="middle" x="181" y="-679" font-family="Arial" font-size="10.00">Repository</text>
</g>
<!-- tf -->
<g id="node2" class="node">
<title>tf</title>
<path fill="lightyellow" stroke="black" d="M124.5,-597C124.5,-597 59.5,-597 59.5,-597 53.5,-597 47.5,-591 47.5,-585 47.5,-585 47.5,-573 47.5,-573 47.5,-567 53.5,-561 59.5,-561 59.5,-561 124.5,-561 124.5,-561 130.5,-561 136.5,-567 136.5,-573 136.5,-573 136.5,-585 136.5,-585 136.5,-591 130.5,-597 124.5,-597"/>
<text text-anchor="middle" x="92" y="-582" font-family="Arial" font-size="10.00">Terraform</text>
<text text-anchor="middle" x="92" y="-571" font-family="Arial" font-size="10.00">(vSphere / AWS)</text>
</g>
<!-- repo&#45;&gt;tf -->
<g id="edge1" class="edge">
<title>repo&#45;&gt;tf</title>
<path fill="none" stroke="black" d="M143.67,-668.94C143.67,-636.79 143.67,-573 143.67,-573 143.67,-573 142.99,-573 142.99,-573"/>
<polygon fill="black" stroke="black" points="146.91,-569.5 136.91,-573 146.91,-576.5 146.91,-569.5"/>
</g>
<!-- ansible -->
<g id="node3" class="node">
<title>ansible</title>
<path fill="lightyellow" stroke="black" d="M146,-489C146,-489 100,-489 100,-489 94,-489 88,-483 88,-477 88,-477 88,-465 88,-465 88,-459 94,-453 100,-453 100,-453 146,-453 146,-453 152,-453 158,-459 158,-465 158,-465 158,-477 158,-477 158,-483 152,-489 146,-489"/>
<text text-anchor="middle" x="123" y="-474" font-family="Arial" font-size="10.00">Ansible</text>
<text text-anchor="middle" x="123" y="-463" font-family="Arial" font-size="10.00">Provisioning</text>
</g>
<!-- repo&#45;&gt;ansible -->
<g id="edge2" class="edge">
<title>repo&#45;&gt;ansible</title>
<path fill="none" stroke="black" d="M150.83,-668.96C150.83,-668.96 150.83,-499.15 150.83,-499.15"/>
<polygon fill="black" stroke="black" points="154.33,-499.15 150.83,-489.15 147.33,-499.15 154.33,-499.15"/>
</g>
<!-- compose -->
<g id="node4" class="node">
<title>compose</title>
<path fill="lightyellow" stroke="black" d="M306.5,-597C306.5,-597 237.5,-597 237.5,-597 231.5,-597 225.5,-591 225.5,-585 225.5,-585 225.5,-573 225.5,-573 225.5,-567 231.5,-561 237.5,-561 237.5,-561 306.5,-561 306.5,-561 312.5,-561 318.5,-567 318.5,-573 318.5,-573 318.5,-585 318.5,-585 318.5,-591 312.5,-597 306.5,-597"/>
<text text-anchor="middle" x="272" y="-576.5" font-family="Arial" font-size="10.00">Docker Compose</text>
</g>
<!-- repo&#45;&gt;compose -->
<g id="edge3" class="edge">
<title>repo&#45;&gt;compose</title>
<path fill="none" stroke="black" d="M214.5,-668.76C214.5,-639.43 214.5,-585 214.5,-585 214.5,-585 215.58,-585 215.58,-585"/>
<polygon fill="black" stroke="black" points="215.32,-588.5 225.32,-585 215.32,-581.5 215.32,-588.5"/>
</g>
<!-- tf&#45;&gt;ansible -->
<g id="edge8" class="edge">
<title>tf&#45;&gt;ansible</title>
<path fill="none" stroke="black" d="M112.25,-560.68C112.25,-560.68 112.25,-499.05 112.25,-499.05"/>
<polygon fill="black" stroke="black" points="115.75,-499.05 112.25,-489.05 108.75,-499.05 115.75,-499.05"/>
</g>
<!-- docker -->
<g id="node5" class="node">
<title>docker</title>
<path fill="lightcyan" stroke="black" d="M151.5,-381C151.5,-381 94.5,-381 94.5,-381 88.5,-381 82.5,-375 82.5,-369 82.5,-369 82.5,-357 82.5,-357 82.5,-351 88.5,-345 94.5,-345 94.5,-345 151.5,-345 151.5,-345 157.5,-345 163.5,-351 163.5,-357 163.5,-357 163.5,-369 163.5,-369 163.5,-375 157.5,-381 151.5,-381"/>
<text text-anchor="middle" x="123" y="-360.5" font-family="Arial" font-size="10.00">Docker Engine</text>
</g>
<!-- ansible&#45;&gt;docker -->
<g id="edge9" class="edge">
<title>ansible&#45;&gt;docker</title>
<path fill="none" stroke="black" d="M123,-452.68C123,-452.68 123,-391.05 123,-391.05"/>
<polygon fill="black" stroke="black" points="126.5,-391.05 123,-381.05 119.5,-391.05 126.5,-391.05"/>
</g>
<!-- grafana -->
<g id="node6" class="node">
<title>grafana</title>
<path fill="lightgreen" stroke="black" d="M103,-273C103,-273 73,-273 73,-273 67,-273 61,-267 61,-261 61,-261 61,-249 61,-249 61,-243 67,-237 73,-237 73,-237 103,-237 103,-237 109,-237 115,-243 115,-249 115,-249 115,-261 115,-261 115,-267 109,-273 103,-273"/>
<text text-anchor="middle" x="88" y="-258" font-family="Arial" font-size="10.00">Grafana</text>
<text text-anchor="middle" x="88" y="-247" font-family="Arial" font-size="10.00">:3000</text>
</g>
<!-- docker&#45;&gt;grafana -->
<g id="edge4" class="edge">
<title>docker&#45;&gt;grafana</title>
<path fill="none" stroke="black" d="M98.75,-344.68C98.75,-344.68 98.75,-283.05 98.75,-283.05"/>
<polygon fill="black" stroke="black" points="102.25,-283.05 98.75,-273.05 95.25,-283.05 102.25,-283.05"/>
</g>
<!-- prometheus -->
<g id="node7" class="node">
<title>prometheus</title>
<path fill="lightgreen" stroke="black" d="M218.5,-165C218.5,-165 173.5,-165 173.5,-165 167.5,-165 161.5,-159 161.5,-153 161.5,-153 161.5,-141 161.5,-141 161.5,-135 167.5,-129 173.5,-129 173.5,-129 218.5,-129 218.5,-129 224.5,-129 230.5,-135 230.5,-141 230.5,-141 230.5,-153 230.5,-153 230.5,-159 224.5,-165 218.5,-165"/>
<text text-anchor="middle" x="196" y="-150" font-family="Arial" font-size="10.00">Prometheus</text>
<text text-anchor="middle" x="196" y="-139" font-family="Arial" font-size="10.00">:9090</text>
</g>
<!-- docker&#45;&gt;prometheus -->
<g id="edge5" class="edge">
<title>docker&#45;&gt;prometheus</title>
<path fill="none" stroke="black" d="M149.17,-344.73C149.17,-293.64 149.17,-153 149.17,-153 149.17,-153 151.47,-153 151.47,-153"/>
<polygon fill="black" stroke="black" points="151.47,-156.5 161.47,-153 151.47,-149.5 151.47,-156.5"/>
</g>
<!-- alertmanager -->
<g id="node8" class="node">
<title>alertmanager</title>
<path fill="lightgreen" stroke="black" d="M131,-54.5C131,-54.5 81,-54.5 81,-54.5 75,-54.5 69,-48.5 69,-42.5 69,-42.5 69,-30.5 69,-30.5 69,-24.5 75,-18.5 81,-18.5 81,-18.5 131,-18.5 131,-18.5 137,-18.5 143,-24.5 143,-30.5 143,-30.5 143,-42.5 143,-42.5 143,-48.5 137,-54.5 131,-54.5"/>
<text text-anchor="middle" x="106" y="-39.5" font-family="Arial" font-size="10.00">Alertmanager</text>
<text text-anchor="middle" x="106" y="-28.5" font-family="Arial" font-size="10.00">:9093</text>
</g>
<!-- docker&#45;&gt;alertmanager -->
<g id="edge6" class="edge">
<title>docker&#45;&gt;alertmanager</title>
<path fill="none" stroke="black" d="M124.33,-344.98C124.33,-344.98 124.33,-64.87 124.33,-64.87"/>
<polygon fill="black" stroke="black" points="127.83,-64.87 124.33,-54.87 120.83,-64.87 127.83,-64.87"/>
</g>
<!-- blackbox -->
<g id="node9" class="node">
<title>blackbox</title>
<path fill="lightgreen" stroke="black" d="M288.5,-273C288.5,-273 215.5,-273 215.5,-273 209.5,-273 203.5,-267 203.5,-261 203.5,-261 203.5,-249 203.5,-249 203.5,-243 209.5,-237 215.5,-237 215.5,-237 288.5,-237 288.5,-237 294.5,-237 300.5,-243 300.5,-249 300.5,-249 300.5,-261 300.5,-261 300.5,-267 294.5,-273 288.5,-273"/>
<text text-anchor="middle" x="252" y="-258" font-family="Arial" font-size="10.00">Blackbox Exporter</text>
<text text-anchor="middle" x="252" y="-247" font-family="Arial" font-size="10.00">:9115</text>
</g>
<!-- docker&#45;&gt;blackbox -->
<g id="edge7" class="edge">
<title>docker&#45;&gt;blackbox</title>
<path fill="none" stroke="black" d="M155.33,-344.76C155.33,-315.43 155.33,-261 155.33,-261 155.33,-261 193.38,-261 193.38,-261"/>
<polygon fill="black" stroke="black" points="193.38,-264.5 203.38,-261 193.38,-257.5 193.38,-264.5"/>
</g>
<!-- grafana&#45;&gt;prometheus -->
<g id="edge13" class="edge">
<title>grafana&#45;&gt;prometheus</title>
<path fill="none" stroke="black" d="M115.11,-249C143.35,-249 183.5,-249 183.5,-249 183.5,-249 183.5,-175.24 183.5,-175.24"/>
<polygon fill="black" stroke="black" points="187,-175.24 183.5,-165.24 180,-175.24 187,-175.24"/>
</g>
<!-- prometheus&#45;&gt;alertmanager -->
<g id="edge14" class="edge">
<title>prometheus&#45;&gt;alertmanager</title>
<path fill="none" stroke="black" d="M161.19,-141C146.91,-141 133.67,-141 133.67,-141 133.67,-141 133.67,-64.7 133.67,-64.7"/>
<polygon fill="black" stroke="black" points="137.17,-64.7 133.67,-54.7 130.17,-64.7 137.17,-64.7"/>
</g>
<!-- docker_vm -->
<g id="node10" class="node">
<title>docker_vm</title>
<path fill="lightgrey" stroke="black" d="M515,-57C515,-57 459,-57 459,-57 453,-57 447,-51 447,-45 447,-45 447,-28 447,-28 447,-22 453,-16 459,-16 459,-16 515,-16 515,-16 521,-16 527,-22 527,-28 527,-28 527,-45 527,-45 527,-51 521,-57 515,-57"/>
<text text-anchor="middle" x="487" y="-45" font-family="Arial" font-size="10.00">ubuntu&#45;docker</text>
<text text-anchor="middle" x="487" y="-34" font-family="Arial" font-size="10.00">192.168.2.51</text>
<text text-anchor="middle" x="487" y="-23" font-family="Arial" font-size="10.00">Node Exporter</text>
</g>
<!-- prometheus&#45;&gt;docker_vm -->
<g id="edge10" class="edge">
<title>prometheus&#45;&gt;docker_vm</title>
<path fill="none" stroke="black" d="M230.61,-141C305.04,-141 473.67,-141 473.67,-141 473.67,-141 473.67,-67.15 473.67,-67.15"/>
<polygon fill="black" stroke="black" points="477.17,-67.15 473.67,-57.15 470.17,-67.15 477.17,-67.15"/>
</g>
<!-- nextcloud_vm -->
<g id="node11" class="node">
<title>nextcloud_vm</title>
<path fill="lightgrey" stroke="black" d="M638,-57C638,-57 582,-57 582,-57 576,-57 570,-51 570,-45 570,-45 570,-28 570,-28 570,-22 576,-16 582,-16 582,-16 638,-16 638,-16 644,-16 650,-22 650,-28 650,-28 650,-45 650,-45 650,-51 644,-57 638,-57"/>
<text text-anchor="middle" x="610" y="-45" font-family="Arial" font-size="10.00">nextcloud</text>
<text text-anchor="middle" x="610" y="-34" font-family="Arial" font-size="10.00">192.168.2.60</text>
<text text-anchor="middle" x="610" y="-23" font-family="Arial" font-size="10.00">Node Exporter</text>
</g>
<!-- prometheus&#45;&gt;nextcloud_vm -->
<g id="edge11" class="edge">
<title>prometheus&#45;&gt;nextcloud_vm</title>
<path fill="none" stroke="black" d="M230.51,-153C327.69,-153 596.67,-153 596.67,-153 596.67,-153 596.67,-67.06 596.67,-67.06"/>
<polygon fill="black" stroke="black" points="600.17,-67.06 596.67,-57.06 593.17,-67.06 600.17,-67.06"/>
</g>
<!-- future -->
<g id="node12" class="node">
<title>future</title>
<path fill="white" stroke="black" d="M392,-54.5C392,-54.5 336,-54.5 336,-54.5 330,-54.5 324,-48.5 324,-42.5 324,-42.5 324,-30.5 324,-30.5 324,-24.5 330,-18.5 336,-18.5 336,-18.5 392,-18.5 392,-18.5 398,-18.5 404,-24.5 404,-30.5 404,-30.5 404,-42.5 404,-42.5 404,-48.5 398,-54.5 392,-54.5"/>
<text text-anchor="middle" x="364" y="-39.5" font-family="Arial" font-size="10.00">Future Nodes</text>
<text text-anchor="middle" x="364" y="-28.5" font-family="Arial" font-size="10.00">Node Exporter</text>
</g>
<!-- prometheus&#45;&gt;future -->
<g id="edge12" class="edge">
<title>prometheus&#45;&gt;future</title>
<path fill="none" stroke="black" d="M196,-128.67C196,-97.14 196,-36 196,-36 196,-36 313.76,-36 313.76,-36"/>
<polygon fill="black" stroke="black" points="313.76,-39.5 323.76,-36 313.76,-32.5 313.76,-39.5"/>
</g>
<!-- blackbox&#45;&gt;docker_vm -->
<g id="edge15" class="edge">
<title>blackbox&#45;&gt;docker_vm</title>
<path fill="none" stroke="black" d="M300.77,-249C373.09,-249 500.33,-249 500.33,-249 500.33,-249 500.33,-67.26 500.33,-67.26"/>
<polygon fill="black" stroke="black" points="503.83,-67.26 500.33,-57.26 496.83,-67.26 503.83,-67.26"/>
</g>
<!-- blackbox&#45;&gt;nextcloud_vm -->
<g id="edge16" class="edge">
<title>blackbox&#45;&gt;nextcloud_vm</title>
<path fill="none" stroke="black" d="M300.55,-261C401.2,-261 623.33,-261 623.33,-261 623.33,-261 623.33,-67.22 623.33,-67.22"/>
<polygon fill="black" stroke="black" points="626.83,-67.22 623.33,-57.22 619.83,-67.22 626.83,-67.22"/>
</g>
</g>
</svg>
