<?xml version="1.0" encoding="UTF-8" standalone="no"?>
<!DOCTYPE svg PUBLIC "-//W3C//DTD SVG 1.1//EN"
 "http://www.w3.org/Graphics/SVG/1.1/DTD/svg11.dtd">
<!-- Generated by graphviz version 2.43.0 (0)
 -->
<!-- Title: MonitoringStack Pages: 1 -->
<svg width="956pt" height="352pt"
 viewBox="0.00 0.00 956.00 352.00" xmlns="http://www.w3.org/2000/svg" xmlns:xlink="http://www.w3.org/1999/xlink">
<g id="graph0" class="graph" transform="scale(1 1) rotate(0) translate(4 348)">
<title>MonitoringStack</title>
<polygon fill="white" stroke="transparent" points="-4,4 -4,-348 952,-348 952,4 -4,4"/>
<g id="clust1" class="cluster">
<title>cluster_edge</title>
<path fill="none" stroke="#d0d7de" d="M303.5,-8C303.5,-8 449.5,-8 449.5,-8 455.5,-8 461.5,-14 461.5,-20 461.5,-20 461.5,-73 461.5,-73 461.5,-79 455.5,-85 449.5,-85 449.5,-85 303.5,-85 303.5,-85 297.5,-85 291.5,-79 291.5,-73 291.5,-73 291.5,-20 291.5,-20 291.5,-14 297.5,-8 303.5,-8"/>
<text text-anchor="middle" x="376.5" y="-69.8" font-family="Times,serif" font-size="14.00">Edge / Reverse Proxy</text>
</g>
<g id="clust2" class="cluster">
<title>cluster_apps</title>
<path fill="none" stroke="#d0d7de" d="M606,-8C606,-8 742,-8 742,-8 748,-8 754,-14 754,-20 754,-20 754,-129 754,-129 754,-135 748,-141 742,-141 742,-141 606,-141 606,-141 600,-141 594,-135 594,-129 594,-129 594,-20 594,-20 594,-14 600,-8 606,-8"/>
<text text-anchor="middle" x="674" y="-125.8" font-family="Times,serif" font-size="14.00">Apps &amp; Views</text>
</g>
<g id="clust3" class="cluster">
<title>cluster_observability</title>
<path fill="none" stroke="#d0d7de" d="M20,-93C20,-93 430,-93 430,-93 436,-93 442,-99 442,-105 442,-105 442,-324 442,-324 442,-330 436,-336 430,-336 430,-336 20,-336 20,-336 14,-336 8,-330 8,-324 8,-324 8,-105 8,-105 8,-99 14,-93 20,-93"/>
<text text-anchor="middle" x="225" y="-320.8" font-family="Times,serif" font-size="14.00">Observability Core</text>
</g>
<g id="clust4" class="cluster">
<title>cluster_storage</title>
<path fill="none" stroke="#d0d7de" d="M787,-18C787,-18 928,-18 928,-18 934,-18 940,-24 940,-30 940,-30 940,-243 940,-243 940,-249 934,-255 928,-255 928,-255 787,-255 787,-255 781,-255 775,-249 775,-243 775,-243 775,-30 775,-30 775,-24 781,-18 787,-18"/>
<text text-anchor="middle" x="857.5" y="-239.8" font-family="Times,serif" font-size="14.00">Volumes</text>
</g>
<!-- Traefik -->
<g id="node1" class="node">
<title>Traefik</title>
<path fill="#f6f8fa" stroke="#d0d7de" d="M405.5,-54C405.5,-54 346.5,-54 346.5,-54 340.5,-54 334.5,-48 334.5,-42 334.5,-42 334.5,-28 334.5,-28 334.5,-22 340.5,-16 346.5,-16 346.5,-16 405.5,-16 405.5,-16 411.5,-16 417.5,-22 417.5,-28 417.5,-28 417.5,-42 417.5,-42 417.5,-48 411.5,-54 405.5,-54"/>
<text text-anchor="middle" x="376" y="-38.8" font-family="Inter" font-size="14.00">Traefik</text>
<text text-anchor="middle" x="376" y="-23.8" font-family="Inter" font-size="14.00">(optional)</text>
</g>
<!-- Grafana -->
<g id="node2" class="node">
<title>Grafana</title>
<path fill="#f6f8fa" stroke="#d0d7de" d="M734,-110C734,-110 614,-110 614,-110 608,-110 602,-104 602,-98 602,-98 602,-84 602,-84 602,-78 608,-72 614,-72 614,-72 734,-72 734,-72 740,-72 746,-78 746,-84 746,-84 746,-98 746,-98 746,-104 740,-110 734,-110"/>
<text text-anchor="middle" x="674" y="-94.8" font-family="Inter" font-size="14.00">Grafana</text>
<text text-anchor="middle" x="674" y="-79.8" font-family="Inter" font-size="14.00">Dashboards/Alerts</text>
</g>
<!-- Traefik&#45;&gt;Grafana -->
<g id="edge2" class="edge">
<title>Traefik&#45;&gt;Grafana</title>
<path fill="none" stroke="#8b949e" d="M417.54,-42.67C462.2,-51.12 535.18,-64.93 591.73,-75.62"/>
<polygon fill="#8b949e" stroke="#8b949e" points="591.25,-79.1 601.73,-77.52 592.55,-72.22 591.25,-79.1"/>
</g>
<!-- Kuma -->
<g id="node3" class="node">
<title>Kuma</title>
<path fill="#f6f8fa" stroke="#d0d7de" d="M731,-54C731,-54 617,-54 617,-54 611,-54 605,-48 605,-42 605,-42 605,-28 605,-28 605,-22 611,-16 617,-16 617,-16 731,-16 731,-16 737,-16 743,-22 743,-28 743,-28 743,-42 743,-42 743,-48 737,-54 731,-54"/>
<text text-anchor="middle" x="674" y="-38.8" font-family="Inter" font-size="14.00">Uptime&#45;Kuma</text>
<text text-anchor="middle" x="674" y="-23.8" font-family="Inter" font-size="14.00">Status/Synthetics</text>
</g>
<!-- Traefik&#45;&gt;Kuma -->
<g id="edge3" class="edge">
<title>Traefik&#45;&gt;Kuma</title>
<path fill="none" stroke="#8b949e" d="M417.54,-35C463.02,-35 537.88,-35 594.83,-35"/>
<polygon fill="#8b949e" stroke="#8b949e" points="594.89,-38.5 604.89,-35 594.89,-31.5 594.89,-38.5"/>
</g>
<!-- vol_grafana -->
<g id="node10" class="node">
<title>vol_grafana</title>
<polygon fill="#f6f8fa" stroke="#d0d7de" points="912.5,-116 909.5,-120 888.5,-120 885.5,-116 802.5,-116 802.5,-80 912.5,-80 912.5,-116"/>
<text text-anchor="middle" x="857.5" y="-94.3" font-family="Inter" font-size="14.00">/data/grafana</text>
</g>
<!-- Grafana&#45;&gt;vol_grafana -->
<g id="edge10" class="edge">
<title>Grafana&#45;&gt;vol_grafana</title>
<path fill="none" stroke="#8b949e" stroke-dasharray="5,2" d="M746.21,-93.75C761.38,-94.33 777.32,-94.95 792.21,-95.52"/>
<polygon fill="#8b949e" stroke="#8b949e" points="792.2,-99.02 802.33,-95.91 792.47,-92.03 792.2,-99.02"/>
</g>
<!-- vol_kuma -->
<g id="node13" class="node">
<title>vol_kuma</title>
<polygon fill="#f6f8fa" stroke="#d0d7de" points="932,-62 929,-66 908,-66 905,-62 783,-62 783,-26 932,-26 932,-62"/>
<text text-anchor="middle" x="857.5" y="-40.3" font-family="Inter" font-size="14.00">/data/uptime&#45;kuma</text>
</g>
<!-- Kuma&#45;&gt;vol_kuma -->
<g id="edge13" class="edge">
<title>Kuma&#45;&gt;vol_kuma</title>
<path fill="none" stroke="#8b949e" stroke-dasharray="5,2" d="M743.1,-38.38C752.73,-38.85 762.72,-39.35 772.61,-39.84"/>
<polygon fill="#8b949e" stroke="#8b949e" points="772.69,-43.35 782.85,-40.35 773.04,-36.36 772.69,-43.35"/>
</g>
<!-- Prom -->
<g id="node4" class="node">
<title>Prom</title>
<path fill="#f6f8fa" stroke="#d0d7de" d="M422,-241C422,-241 330,-241 330,-241 324,-241 318,-235 318,-229 318,-229 318,-215 318,-215 318,-209 324,-203 330,-203 330,-203 422,-203 422,-203 428,-203 434,-209 434,-215 434,-215 434,-229 434,-229 434,-235 428,-241 422,-241"/>
<text text-anchor="middle" x="376" y="-225.8" font-family="Inter" font-size="14.00">Prometheus</text>
<text text-anchor="middle" x="376" y="-210.8" font-family="Inter" font-size="14.00">scrape + alert</text>
</g>
<!-- Prom&#45;&gt;Grafana -->
<g id="edge4" class="edge">
<title>Prom&#45;&gt;Grafana</title>
<path fill="none" stroke="#8b949e" d="M420.04,-202.95C473.2,-179.42 563.58,-139.42 620.69,-114.15"/>
<polygon fill="#8b949e" stroke="#8b949e" points="622.18,-117.32 629.91,-110.07 619.35,-110.92 622.18,-117.32"/>
<text text-anchor="middle" x="527.5" y="-182.8" font-family="Times,serif" font-size="14.00">datasource</text>
</g>
<!-- vol_prom -->
<g id="node11" class="node">
<title>vol_prom</title>
<polygon fill="#f6f8fa" stroke="#d0d7de" points="927.5,-224 924.5,-228 903.5,-228 900.5,-224 787.5,-224 787.5,-188 927.5,-188 927.5,-224"/>
<text text-anchor="middle" x="857.5" y="-202.3" font-family="Inter" font-size="14.00">/data/prometheus</text>
</g>
<!-- Prom&#45;&gt;vol_prom -->
<g id="edge11" class="edge">
<title>Prom&#45;&gt;vol_prom</title>
<path fill="none" stroke="#8b949e" stroke-dasharray="5,2" d="M434.36,-220.09C519.83,-217.23 680.88,-211.86 777.46,-208.64"/>
<polygon fill="#8b949e" stroke="#8b949e" points="777.58,-212.14 787.46,-208.3 777.35,-205.14 777.58,-212.14"/>
</g>
<!-- Blackbox -->
<g id="node5" class="node">
<title>Blackbox</title>
<path fill="#f6f8fa" stroke="#d0d7de" d="M148,-305C148,-305 28,-305 28,-305 22,-305 16,-299 16,-293 16,-293 16,-281 16,-281 16,-275 22,-269 28,-269 28,-269 148,-269 148,-269 154,-269 160,-275 160,-281 160,-281 160,-293 160,-293 160,-299 154,-305 148,-305"/>
<text text-anchor="middle" x="88" y="-283.3" font-family="Inter" font-size="14.00">Blackbox Exporter</text>
</g>
<!-- Blackbox&#45;&gt;Prom -->
<g id="edge7" class="edge">
<title>Blackbox&#45;&gt;Prom</title>
<path fill="none" stroke="#8b949e" d="M160.27,-272.11C194.69,-264.78 236.55,-255.68 274,-247 285.02,-244.44 296.7,-241.64 308.05,-238.87"/>
<polygon fill="#8b949e" stroke="#8b949e" points="309.04,-242.23 317.92,-236.44 307.37,-235.43 309.04,-242.23"/>
<text text-anchor="middle" x="226" y="-271.8" font-family="Times,serif" font-size="14.00">probe results</text>
</g>
<!-- Loki -->
<g id="node6" class="node">
<title>Loki</title>
<path fill="#f6f8fa" stroke="#d0d7de" d="M402.5,-139C402.5,-139 349.5,-139 349.5,-139 343.5,-139 337.5,-133 337.5,-127 337.5,-127 337.5,-113 337.5,-113 337.5,-107 343.5,-101 349.5,-101 349.5,-101 402.5,-101 402.5,-101 408.5,-101 414.5,-107 414.5,-113 414.5,-113 414.5,-127 414.5,-127 414.5,-133 408.5,-139 402.5,-139"/>
<text text-anchor="middle" x="376" y="-123.8" font-family="Inter" font-size="14.00">Loki</text>
<text text-anchor="middle" x="376" y="-108.8" font-family="Inter" font-size="14.00">log store</text>
</g>
<!-- Loki&#45;&gt;Grafana -->
<g id="edge9" class="edge">
<title>Loki&#45;&gt;Grafana</title>
<path fill="none" stroke="#8b949e" d="M414.79,-116.3C459.12,-111.95 533.88,-104.63 591.58,-98.98"/>
<polygon fill="#8b949e" stroke="#8b949e" points="592.17,-102.44 601.78,-97.98 591.49,-95.47 592.17,-102.44"/>
<text text-anchor="middle" x="527.5" y="-113.8" font-family="Times,serif" font-size="14.00">logs datasource</text>
</g>
<!-- vol_loki -->
<g id="node12" class="node">
<title>vol_loki</title>
<polygon fill="#f6f8fa" stroke="#d0d7de" points="897.5,-170 894.5,-174 873.5,-174 870.5,-170 817.5,-170 817.5,-134 897.5,-134 897.5,-170"/>
<text text-anchor="middle" x="857.5" y="-148.3" font-family="Inter" font-size="14.00">/data/loki</text>
</g>
<!-- Loki&#45;&gt;vol_loki -->
<g id="edge12" class="edge">
<title>Loki&#45;&gt;vol_loki</title>
<path fill="none" stroke="#8b949e" stroke-dasharray="5,2" d="M414.54,-125.34C457.73,-131.25 530.83,-140.53 594,-145 668.18,-150.25 754.41,-151.65 807.21,-151.98"/>
<polygon fill="#8b949e" stroke="#8b949e" points="807.29,-155.48 817.31,-152.03 807.33,-148.48 807.29,-155.48"/>
</g>
<!-- Promtail -->
<g id="node7" class="node">
<title>Promtail</title>
<path fill="#f6f8fa" stroke="#d0d7de" d="M123.5,-139C123.5,-139 52.5,-139 52.5,-139 46.5,-139 40.5,-133 40.5,-127 40.5,-127 40.5,-113 40.5,-113 40.5,-107 46.5,-101 52.5,-101 52.5,-101 123.5,-101 123.5,-101 129.5,-101 135.5,-107 135.5,-113 135.5,-113 135.5,-127 135.5,-127 135.5,-133 129.5,-139 123.5,-139"/>
<text text-anchor="middle" x="88" y="-123.8" font-family="Inter" font-size="14.00">Promtail</text>
<text text-anchor="middle" x="88" y="-108.8" font-family="Inter" font-size="14.00">log shipper</text>
</g>
<!-- Promtail&#45;&gt;Loki -->
<g id="edge8" class="edge">
<title>Promtail&#45;&gt;Loki</title>
<path fill="none" stroke="#8b949e" d="M135.59,-120C188.27,-120 273.62,-120 326.91,-120"/>
<polygon fill="#8b949e" stroke="#8b949e" points="327.12,-123.5 337.12,-120 327.12,-116.5 327.12,-123.5"/>
<text text-anchor="middle" x="226" y="-123.8" font-family="Times,serif" font-size="14.00">push logs</text>
</g>
<!-- NodeExp -->
<g id="node8" class="node">
<title>NodeExp</title>
<path fill="#f6f8fa" stroke="#d0d7de" d="M134.5,-251C134.5,-251 41.5,-251 41.5,-251 35.5,-251 29.5,-245 29.5,-239 29.5,-239 29.5,-225 29.5,-225 29.5,-219 35.5,-213 41.5,-213 41.5,-213 134.5,-213 134.5,-213 140.5,-213 146.5,-219 146.5,-225 146.5,-225 146.5,-239 146.5,-239 146.5,-245 140.5,-251 134.5,-251"/>
<text text-anchor="middle" x="88" y="-235.8" font-family="Inter" font-size="14.00">Node Exporter</text>
<text text-anchor="middle" x="88" y="-220.8" font-family="Inter" font-size="14.00">host metrics</text>
</g>
<!-- NodeExp&#45;&gt;Prom -->
<g id="edge5" class="edge">
<title>NodeExp&#45;&gt;Prom</title>
<path fill="none" stroke="#8b949e" d="M146.53,-229.99C192.98,-228.36 258.43,-226.08 307.38,-224.36"/>
<polygon fill="#8b949e" stroke="#8b949e" points="307.69,-227.86 317.56,-224.01 307.44,-220.86 307.69,-227.86"/>
<text text-anchor="middle" x="226" y="-231.8" font-family="Times,serif" font-size="14.00">scrape</text>
</g>
<!-- Cadvisor -->
<g id="node9" class="node">
<title>Cadvisor</title>
<polygon fill="none" stroke="#d0d7de" stroke-dasharray="5,2" points="157,-195 19,-195 19,-157 157,-157 157,-195"/>
<text text-anchor="middle" x="88" y="-179.8" font-family="Inter" font-size="14.00">cAdvisor</text>
<text text-anchor="middle" x="88" y="-164.8" font-family="Inter" font-size="14.00">container metrics</text>
</g>
<!-- Cadvisor&#45;&gt;Prom -->
<g id="edge6" class="edge">
<title>Cadvisor&#45;&gt;Prom</title>
<path fill="none" stroke="#8b949e" stroke-dasharray="5,2" d="M157.14,-186.96C202.76,-194.3 262.54,-203.91 307.93,-211.21"/>
<polygon fill="#8b949e" stroke="#8b949e" points="307.54,-214.7 317.97,-212.83 308.66,-207.78 307.54,-214.7"/>
<text text-anchor="middle" x="226" y="-207.8" font-family="Times,serif" font-size="14.00">scrape</text>
</g>
<!-- User -->
<g id="node14" class="node">
<title>User</title>
<ellipse fill="#f6f8fa" stroke="#d0d7de" cx="88" cy="-35" rx="69.59" ry="18"/>
<text text-anchor="middle" x="88" y="-31.3" font-family="Inter" font-size="14.00">User / Admin</text>
</g>
<!-- User&#45;&gt;Traefik -->
<g id="edge1" class="edge">
<title>User&#45;&gt;Traefik</title>
<path fill="none" stroke="#8b949e" d="M157.87,-35C209.04,-35 277.71,-35 324.02,-35"/>
<polygon fill="#8b949e" stroke="#8b949e" points="324.12,-38.5 334.12,-35 324.12,-31.5 324.12,-38.5"/>
</g>
</g>
</svg>
