<?xml version="1.0" encoding="UTF-8" standalone="no"?>
<!DOCTYPE svg PUBLIC "-//W3C//DTD SVG 1.1//EN"
 "http://www.w3.org/Graphics/SVG/1.1/DTD/svg11.dtd">
<!-- Generated by graphviz version 2.43.0 (0)
 -->
<!-- Title: G Pages: 1 -->
<svg width="925pt" height="260pt"
 viewBox="0.00 0.00 925.00 260.00" xmlns="http://www.w3.org/2000/svg" xmlns:xlink="http://www.w3.org/1999/xlink">
<g id="graph0" class="graph" transform="scale(1 1) rotate(0) translate(4 256)">
<title>G</title>
<polygon fill="white" stroke="transparent" points="-4,4 -4,-256 921,-256 921,4 -4,4"/>
<g id="clust1" class="cluster">
<title>cluster_exporters</title>
<polygon fill="none" stroke="blue" stroke-dasharray="5,2" points="0,-55 0,-244 198,-244 198,-55 0,-55"/>
<text text-anchor="middle" x="99" y="-228.8" font-family="Times,serif" font-size="14.00">Data Sources (Exporters)</text>
</g>
<g id="clust2" class="cluster">
<title>cluster_core</title>
<polygon fill="none" stroke="red" stroke-dasharray="5,2" points="266,-111 266,-188 667,-188 667,-111 266,-111"/>
<text text-anchor="middle" x="466.5" y="-172.8" font-family="Times,serif" font-size="14.00">Monitoring Core</text>
</g>
<g id="clust3" class="cluster">
<title>cluster_output</title>
<polygon fill="none" stroke="green" stroke-dasharray="5,2" points="729,-8 729,-141 917,-141 917,-8 729,-8"/>
<text text-anchor="middle" x="823" y="-125.8" font-family="Times,serif" font-size="14.00">Visualization &amp; Alerting</text>
</g>
<!-- node_exp -->
<g id="node1" class="node">
<title>node_exp</title>
<polygon fill="#d4e1f5" stroke="#e1e1e1" points="151,-213 47,-213 47,-175 151,-175 151,-213"/>
<text text-anchor="middle" x="99" y="-197.8" font-family="Arial" font-size="14.00">Node Exporter</text>
<text text-anchor="middle" x="99" y="-182.8" font-family="Arial" font-size="14.00">(Host Metrics)</text>
</g>
<!-- prom -->
<g id="node4" class="node">
<title>prom</title>
<polygon fill="#f5d4d4" stroke="#e1e1e1" points="414,-157 274,-157 274,-119 414,-119 414,-157"/>
<text text-anchor="middle" x="344" y="-141.8" font-family="Arial" font-size="14.00">Prometheus</text>
<text text-anchor="middle" x="344" y="-126.8" font-family="Arial" font-size="14.00">(Scraping &amp; Alerting)</text>
</g>
<!-- node_exp&#45;&gt;prom -->
<g id="edge1" class="edge">
<title>node_exp&#45;&gt;prom</title>
<path fill="none" stroke="black" d="M151.24,-182.19C183.96,-174.65 227.04,-164.72 264.08,-156.19"/>
<polygon fill="black" stroke="black" points="264.9,-159.59 273.85,-153.93 263.32,-152.77 264.9,-159.59"/>
<text text-anchor="middle" x="232" y="-170.8" font-family="Times,serif" font-size="14.00">scrape</text>
</g>
<!-- cadvisor -->
<g id="node2" class="node">
<title>cadvisor</title>
<polygon fill="#d4e1f5" stroke="#e1e1e1" points="165,-157 33,-157 33,-119 165,-119 165,-157"/>
<text text-anchor="middle" x="99" y="-141.8" font-family="Arial" font-size="14.00">cAdvisor</text>
<text text-anchor="middle" x="99" y="-126.8" font-family="Arial" font-size="14.00">(Container Metrics)</text>
</g>
<!-- cadvisor&#45;&gt;prom -->
<g id="edge2" class="edge">
<title>cadvisor&#45;&gt;prom</title>
<path fill="none" stroke="black" d="M165.12,-138C195.44,-138 231.78,-138 263.68,-138"/>
<polygon fill="black" stroke="black" points="263.87,-141.5 273.87,-138 263.87,-134.5 263.87,-141.5"/>
<text text-anchor="middle" x="232" y="-141.8" font-family="Times,serif" font-size="14.00">scrape</text>
</g>
<!-- blackbox -->
<g id="node3" class="node">
<title>blackbox</title>
<polygon fill="#d4e1f5" stroke="#e1e1e1" points="168,-101 30,-101 30,-63 168,-63 168,-101"/>
<text text-anchor="middle" x="99" y="-85.8" font-family="Arial" font-size="14.00">Blackbox Exporter</text>
<text text-anchor="middle" x="99" y="-70.8" font-family="Arial" font-size="14.00">(HTTP/TCP Probes)</text>
</g>
<!-- blackbox&#45;&gt;prom -->
<g id="edge3" class="edge">
<title>blackbox&#45;&gt;prom</title>
<path fill="none" stroke="black" d="M168.01,-97.67C197.79,-104.53 232.91,-112.63 263.85,-119.76"/>
<polygon fill="black" stroke="black" points="263.21,-123.2 273.74,-122.04 264.78,-116.38 263.21,-123.2"/>
<text text-anchor="middle" x="232" y="-119.8" font-family="Times,serif" font-size="14.00">scrape</text>
</g>
<!-- vic -->
<g id="node5" class="node">
<title>vic</title>
<polygon fill="#f5d4d4" stroke="#e1e1e1" points="659,-157 546,-157 546,-119 659,-119 659,-157"/>
<text text-anchor="middle" x="602.5" y="-141.8" font-family="Arial" font-size="14.00">VictoriaMetrics</text>
<text text-anchor="middle" x="602.5" y="-126.8" font-family="Arial" font-size="14.00">(TSDB Storage)</text>
</g>
<!-- prom&#45;&gt;vic -->
<g id="edge4" class="edge">
<title>prom&#45;&gt;vic</title>
<path fill="none" stroke="black" d="M414.07,-138C451.78,-138 498.23,-138 535.45,-138"/>
<polygon fill="black" stroke="black" points="535.69,-141.5 545.69,-138 535.69,-134.5 535.69,-141.5"/>
<text text-anchor="middle" x="480" y="-141.8" font-family="Times,serif" font-size="14.00">remote_write</text>
</g>
<!-- grafana -->
<g id="node6" class="node">
<title>grafana</title>
<polygon fill="#d4f5d4" stroke="#e1e1e1" points="900,-110 746,-110 746,-72 900,-72 900,-110"/>
<text text-anchor="middle" x="823" y="-94.8" font-family="Arial" font-size="14.00">Grafana</text>
<text text-anchor="middle" x="823" y="-79.8" font-family="Arial" font-size="14.00">(Dashboards&#45;as&#45;Code)</text>
</g>
<!-- prom&#45;&gt;grafana -->
<g id="edge7" class="edge">
<title>prom&#45;&gt;grafana</title>
<path fill="none" stroke="black" d="M414.21,-119.68C452.71,-110.38 501.68,-100.01 546,-95 609.19,-87.85 681.03,-87.04 735.57,-87.92"/>
<polygon fill="black" stroke="black" points="735.83,-91.42 745.89,-88.11 735.96,-84.42 735.83,-91.42"/>
<text text-anchor="middle" x="602.5" y="-98.8" font-family="Times,serif" font-size="14.00">query</text>
</g>
<!-- alertmgr -->
<g id="node7" class="node">
<title>alertmgr</title>
<polygon fill="#d4f5d4" stroke="#e1e1e1" points="894.5,-54 751.5,-54 751.5,-16 894.5,-16 894.5,-54"/>
<text text-anchor="middle" x="823" y="-38.8" font-family="Arial" font-size="14.00">Alertmanager</text>
<text text-anchor="middle" x="823" y="-23.8" font-family="Arial" font-size="14.00">(Notification Routing)</text>
</g>
<!-- prom&#45;&gt;alertmgr -->
<g id="edge5" class="edge">
<title>prom&#45;&gt;alertmgr</title>
<path fill="none" stroke="black" d="M377.13,-118.81C393.17,-109.91 413.13,-99.82 432,-93 534.64,-55.93 660.7,-42.53 741.2,-37.71"/>
<polygon fill="black" stroke="black" points="741.49,-41.2 751.27,-37.13 741.09,-34.21 741.49,-41.2"/>
<text text-anchor="middle" x="602.5" y="-64.8" font-family="Times,serif" font-size="14.00">alerts</text>
</g>
<!-- vic&#45;&gt;grafana -->
<g id="edge6" class="edge">
<title>vic&#45;&gt;grafana</title>
<path fill="none" stroke="black" d="M659.2,-126.02C682.52,-121 710.17,-115.06 735.99,-109.5"/>
<polygon fill="black" stroke="black" points="736.75,-112.92 745.79,-107.39 735.28,-106.07 736.75,-112.92"/>
<text text-anchor="middle" x="698" y="-124.8" font-family="Times,serif" font-size="14.00">query</text>
</g>
</g>
</svg>
