<?xml version="1.0" encoding="UTF-8" standalone="no"?>
<!DOCTYPE svg PUBLIC "-//W3C//DTD SVG 1.1//EN"
 "http://www.w3.org/Graphics/SVG/1.1/DTD/svg11.dtd">
<!-- Generated by graphviz version 2.43.0 (0)
 -->
<!-- Title: MonitoringStack Pages: 1 -->
<svg width="940pt" height="270pt"
 viewBox="0.00 0.00 940.00 270.00" xmlns="http://www.w3.org/2000/svg" xmlns:xlink="http://www.w3.org/1999/xlink">
<g id="graph0" class="graph" transform="scale(1 1) rotate(0) translate(4 266)">
<title>MonitoringStack</title>
<polygon fill="white" stroke="transparent" points="-4,4 -4,-266 936,-266 936,4 -4,4"/>
<!-- Grafana -->
<g id="node1" class="node">
<title>Grafana</title>
<polygon fill="lightblue" stroke="lightblue" points="932,-109 858,-109 858,-73 932,-73 932,-109"/>
<text text-anchor="middle" x="895" y="-87.3" font-family="Times,serif" font-size="14.00">Grafana</text>
</g>
<!-- Prometheus -->
<g id="node2" class="node">
<title>Prometheus</title>
<polygon fill="lightyellow" stroke="lightyellow" points="760.5,-205 657.5,-205 657.5,-169 760.5,-169 760.5,-205"/>
<text text-anchor="middle" x="709" y="-183.3" font-family="Times,serif" font-size="14.00">Prometheus</text>
</g>
<!-- Prometheus&#45;&gt;Grafana -->
<g id="edge3" class="edge">
<title>Prometheus&#45;&gt;Grafana</title>
<path fill="none" stroke="black" d="M757.81,-168.89C782.9,-158.68 813.79,-144.98 840,-130 847.72,-125.59 855.68,-120.3 863.03,-115.07"/>
<polygon fill="black" stroke="black" points="865.32,-117.74 871.33,-109.01 861.19,-112.08 865.32,-117.74"/>
<text text-anchor="middle" x="812.5" y="-159.8" font-family="Times,serif" font-size="14.00">metrics</text>
</g>
<!-- NodeExporter -->
<g id="node3" class="node">
<title>NodeExporter</title>
<polygon fill="lightgrey" stroke="lightgrey" points="546.5,-262 424.5,-262 424.5,-226 546.5,-226 546.5,-262"/>
<text text-anchor="middle" x="485.5" y="-240.3" font-family="Times,serif" font-size="14.00">Node Exporter</text>
</g>
<!-- NodeExporter&#45;&gt;Prometheus -->
<g id="edge1" class="edge">
<title>NodeExporter&#45;&gt;Prometheus</title>
<path fill="none" stroke="black" d="M546.73,-228.5C577.94,-220.47 615.97,-210.68 647.25,-202.63"/>
<polygon fill="black" stroke="black" points="648.34,-205.97 657.16,-200.08 646.6,-199.19 648.34,-205.97"/>
</g>
<!-- Blackbox -->
<g id="node4" class="node">
<title>Blackbox</title>
<polygon fill="lightgrey" stroke="lightgrey" points="560,-208 411,-208 411,-172 560,-172 560,-208"/>
<text text-anchor="middle" x="485.5" y="-186.3" font-family="Times,serif" font-size="14.00">Blackbox Exporter</text>
</g>
<!-- Blackbox&#45;&gt;Prometheus -->
<g id="edge2" class="edge">
<title>Blackbox&#45;&gt;Prometheus</title>
<path fill="none" stroke="black" d="M560.26,-189C588.49,-188.62 620.35,-188.19 647.23,-187.82"/>
<polygon fill="black" stroke="black" points="647.32,-191.32 657.27,-187.69 647.23,-184.32 647.32,-191.32"/>
</g>
<!-- Loki -->
<g id="node5" class="node">
<title>Loki</title>
<polygon fill="lightpink" stroke="lightpink" points="736,-144 682,-144 682,-108 736,-108 736,-144"/>
<text text-anchor="middle" x="709" y="-122.3" font-family="Times,serif" font-size="14.00">Loki</text>
</g>
<!-- Loki&#45;&gt;Grafana -->
<g id="edge4" class="edge">
<title>Loki&#45;&gt;Grafana</title>
<path fill="none" stroke="black" d="M736.36,-120.99C765.39,-115.46 812.62,-106.48 847.83,-99.78"/>
<polygon fill="black" stroke="black" points="848.7,-103.18 857.87,-97.87 847.39,-96.3 848.7,-103.18"/>
<text text-anchor="middle" x="812.5" y="-114.8" font-family="Times,serif" font-size="14.00">logs</text>
</g>
<!-- Promtail -->
<g id="node6" class="node">
<title>Promtail</title>
<polygon fill="lightpink" stroke="lightpink" points="524.5,-64 446.5,-64 446.5,-28 524.5,-28 524.5,-64"/>
<text text-anchor="middle" x="485.5" y="-42.3" font-family="Times,serif" font-size="14.00">Promtail</text>
</g>
<!-- Promtail&#45;&gt;Loki -->
<g id="edge6" class="edge">
<title>Promtail&#45;&gt;Loki</title>
<path fill="none" stroke="black" d="M524.79,-35C556.73,-28.27 601.89,-24.69 633,-47 652.87,-61.25 634.68,-80.79 651,-99 656.88,-105.56 664.7,-110.67 672.66,-114.58"/>
<polygon fill="black" stroke="black" points="671.39,-117.85 681.95,-118.65 674.2,-111.44 671.39,-117.85"/>
<text text-anchor="middle" x="605.5" y="-50.8" font-family="Times,serif" font-size="14.00">logs</text>
</g>
<!-- UptimeKuma -->
<g id="node7" class="node">
<title>UptimeKuma</title>
<polygon fill="lightgreen" stroke="lightgreen" points="767,-90 651,-90 651,-54 767,-54 767,-90"/>
<text text-anchor="middle" x="709" y="-68.3" font-family="Times,serif" font-size="14.00">Uptime Kuma</text>
</g>
<!-- UptimeKuma&#45;&gt;Grafana -->
<g id="edge7" class="edge">
<title>UptimeKuma&#45;&gt;Grafana</title>
<path fill="none" stroke="black" d="M767.09,-74.54C789.83,-75.92 816.21,-77.98 840,-81 842.52,-81.32 845.11,-81.68 847.71,-82.07"/>
<polygon fill="black" stroke="black" points="847.35,-85.56 857.78,-83.71 848.47,-78.65 847.35,-85.56"/>
<text text-anchor="middle" x="812.5" y="-84.8" font-family="Times,serif" font-size="14.00">status</text>
</g>
<!-- OTel -->
<g id="node8" class="node">
<title>OTel</title>
<polygon fill="orange" stroke="orange" points="544.5,-140 426.5,-140 426.5,-104 544.5,-104 544.5,-140"/>
<text text-anchor="middle" x="485.5" y="-118.3" font-family="Times,serif" font-size="14.00">OTel Collector</text>
</g>
<!-- OTel&#45;&gt;Prometheus -->
<g id="edge11" class="edge">
<title>OTel&#45;&gt;Prometheus</title>
<path fill="none" stroke="black" stroke-dasharray="5,2" d="M544.7,-139.08C576.41,-148.38 615.6,-159.89 647.65,-169.29"/>
<polygon fill="black" stroke="black" points="646.76,-172.68 657.34,-172.13 648.73,-165.96 646.76,-172.68"/>
<text text-anchor="middle" x="605.5" y="-167.8" font-family="Times,serif" font-size="14.00">metrics</text>
</g>
<!-- OTel&#45;&gt;Loki -->
<g id="edge10" class="edge">
<title>OTel&#45;&gt;Loki</title>
<path fill="none" stroke="black" stroke-dasharray="5,2" d="M544.61,-121.95C571.51,-122.05 603.89,-122.32 633,-123 645.6,-123.29 659.37,-123.79 671.65,-124.3"/>
<polygon fill="black" stroke="black" points="671.83,-127.81 681.97,-124.75 672.13,-120.82 671.83,-127.81"/>
<text text-anchor="middle" x="605.5" y="-126.8" font-family="Times,serif" font-size="14.00">logs</text>
</g>
<!-- Tempo -->
<g id="node9" class="node">
<title>Tempo</title>
<polygon fill="orange" stroke="orange" points="741,-36 677,-36 677,0 741,0 741,-36"/>
<text text-anchor="middle" x="709" y="-14.3" font-family="Times,serif" font-size="14.00">Tempo</text>
</g>
<!-- OTel&#45;&gt;Tempo -->
<g id="edge9" class="edge">
<title>OTel&#45;&gt;Tempo</title>
<path fill="none" stroke="black" d="M544.2,-103.94C572.21,-93.82 605.63,-79.65 633,-62 642.25,-56.04 641.92,-51.21 651,-45 656.22,-41.43 661.99,-38.1 667.79,-35.08"/>
<polygon fill="black" stroke="black" points="669.44,-38.16 676.85,-30.6 666.34,-31.89 669.44,-38.16"/>
<text text-anchor="middle" x="605.5" y="-93.8" font-family="Times,serif" font-size="14.00">traces</text>
</g>
<!-- Tempo&#45;&gt;Grafana -->
<g id="edge5" class="edge">
<title>Tempo&#45;&gt;Grafana</title>
<path fill="none" stroke="black" d="M741.06,-24.8C767.94,-31.28 807.5,-42.23 840,-57 846.66,-60.03 853.47,-63.75 859.92,-67.62"/>
<polygon fill="black" stroke="black" points="858.09,-70.6 868.43,-72.92 861.79,-64.66 858.09,-70.6"/>
<text text-anchor="middle" x="812.5" y="-60.8" font-family="Times,serif" font-size="14.00">traces</text>
</g>
<!-- DemoAPI -->
<g id="node10" class="node">
<title>DemoAPI</title>
<polygon fill="gold" stroke="gold" points="194,-140 0,-140 0,-104 194,-104 194,-140"/>
<text text-anchor="middle" x="97" y="-118.3" font-family="Times,serif" font-size="14.00">Demo API (Flask + OTel)</text>
</g>
<!-- DemoAPI&#45;&gt;OTel -->
<g id="edge8" class="edge">
<title>DemoAPI&#45;&gt;OTel</title>
<path fill="none" stroke="black" d="M194.04,-122C263.18,-122 354.78,-122 416.47,-122"/>
<polygon fill="black" stroke="black" points="416.49,-125.5 426.49,-122 416.49,-118.5 416.49,-125.5"/>
<text text-anchor="middle" x="302.5" y="-125.8" font-family="Times,serif" font-size="14.00">OTLP traces/logs/metrics</text>
</g>
</g>
</svg>
