<?xml version="1.0" encoding="UTF-8" standalone="no"?>
<!DOCTYPE svg PUBLIC "-//W3C//DTD SVG 1.1//EN"
 "http://www.w3.org/Graphics/SVG/1.1/DTD/svg11.dtd">
<!-- Generated by graphviz version 2.43.0 (0)
 -->
<!-- Title: Monitoring Pages: 1 -->
<svg width="793pt" height="408pt"
 viewBox="0.00 0.00 793.00 407.86" xmlns="http://www.w3.org/2000/svg" xmlns:xlink="http://www.w3.org/1999/xlink">
<g id="graph0" class="graph" transform="scale(1 1) rotate(0) translate(4 403.86)">
<title>Monitoring</title>
<polygon fill="white" stroke="transparent" points="-4,4 -4,-403.86 789,-403.86 789,4 -4,4"/>
<text text-anchor="middle" x="392.5" y="-384.66" font-family="Inter,Helvetica,Arial" font-size="14.00">Monitoring Stack (Prometheus • Grafana • Loki • Alertmanager)</text>
<g id="clust1" class="cluster">
<title>cluster_host</title>
<path fill="none" stroke="#cbd5e1" d="M20,-93C20,-93 765,-93 765,-93 771,-93 777,-99 777,-105 777,-105 777,-316 777,-316 777,-322 771,-328 765,-328 765,-328 20,-328 20,-328 14,-328 8,-322 8,-316 8,-316 8,-105 8,-105 8,-99 14,-93 20,-93"/>
<text text-anchor="middle" x="392.5" y="-314.4" font-family="Inter,Helvetica,Arial" font-size="12.00">Ubuntu VM (Docker)</text>
</g>
<g id="clust2" class="cluster">
<title>cluster_git</title>
<path fill="none" stroke="#e5e7eb" stroke-dasharray="5,2" d="M28,-8C28,-8 164,-8 164,-8 170,-8 176,-14 176,-20 176,-20 176,-73 176,-73 176,-79 170,-85 164,-85 164,-85 28,-85 28,-85 22,-85 16,-79 16,-73 16,-73 16,-20 16,-20 16,-14 22,-8 28,-8"/>
<text text-anchor="middle" x="96" y="-69.8" font-family="Inter,Helvetica,Arial" font-size="14.00">GitHub (optional CI/CD)</text>
</g>
<!-- Prometheus -->
<g id="node1" class="node">
<title>Prometheus</title>
<path fill="#f8f9fb" stroke="#aab3c0" d="M451,-241C451,-241 351,-241 351,-241 345,-241 339,-235 339,-229 339,-229 339,-217 339,-217 339,-211 345,-205 351,-205 351,-205 451,-205 451,-205 457,-205 463,-211 463,-217 463,-217 463,-229 463,-229 463,-235 457,-241 451,-241"/>
<text text-anchor="middle" x="401" y="-219.3" font-family="Inter,Helvetica,Arial" font-size="14.00">Prometheus:9090</text>
</g>
<!-- Alertmanager -->
<g id="node2" class="node">
<title>Alertmanager</title>
<path fill="#f8f9fb" stroke="#aab3c0" d="M757,-273C757,-273 649,-273 649,-273 643,-273 637,-267 637,-261 637,-261 637,-249 637,-249 637,-243 643,-237 649,-237 649,-237 757,-237 757,-237 763,-237 769,-243 769,-249 769,-249 769,-261 769,-261 769,-267 763,-273 757,-273"/>
<text text-anchor="middle" x="703" y="-251.3" font-family="Inter,Helvetica,Arial" font-size="14.00">Alertmanager:9093</text>
</g>
<!-- Prometheus&#45;&gt;Alertmanager -->
<g id="edge7" class="edge">
<title>Prometheus&#45;&gt;Alertmanager</title>
<path fill="none" stroke="#8aa1b1" d="M463.07,-229.51C510.35,-234.56 576.08,-241.57 626.64,-246.96"/>
<polygon fill="#8aa1b1" stroke="#8aa1b1" points="626.54,-250.47 636.86,-248.05 627.29,-243.51 626.54,-250.47"/>
<text text-anchor="middle" x="550" y="-248.8" font-family="Times,serif" font-size="14.00">alerts (rules)</text>
</g>
<!-- Grafana -->
<g id="node3" class="node">
<title>Grafana</title>
<path fill="#f8f9fb" stroke="#aab3c0" d="M741,-207C741,-207 665,-207 665,-207 659,-207 653,-201 653,-195 653,-195 653,-183 653,-183 653,-177 659,-171 665,-171 665,-171 741,-171 741,-171 747,-171 753,-177 753,-183 753,-183 753,-195 753,-195 753,-201 747,-207 741,-207"/>
<text text-anchor="middle" x="703" y="-185.3" font-family="Inter,Helvetica,Arial" font-size="14.00">Grafana:3000</text>
</g>
<!-- Prometheus&#45;&gt;Grafana -->
<g id="edge6" class="edge">
<title>Prometheus&#45;&gt;Grafana</title>
<path fill="none" stroke="#8aa1b1" d="M463.22,-214.26C469.22,-213.47 475.23,-212.7 481,-212 535.71,-205.35 598.19,-198.96 642.72,-194.61"/>
<polygon fill="#8aa1b1" stroke="#8aa1b1" points="643.18,-198.08 652.79,-193.63 642.5,-191.11 643.18,-198.08"/>
<text text-anchor="middle" x="550" y="-215.8" font-family="Times,serif" font-size="14.00">metrics datasource</text>
</g>
<!-- Loki -->
<g id="node4" class="node">
<title>Loki</title>
<path fill="#f8f9fb" stroke="#aab3c0" d="M426.5,-162C426.5,-162 375.5,-162 375.5,-162 369.5,-162 363.5,-156 363.5,-150 363.5,-150 363.5,-138 363.5,-138 363.5,-132 369.5,-126 375.5,-126 375.5,-126 426.5,-126 426.5,-126 432.5,-126 438.5,-132 438.5,-138 438.5,-138 438.5,-150 438.5,-150 438.5,-156 432.5,-162 426.5,-162"/>
<text text-anchor="middle" x="401" y="-140.3" font-family="Inter,Helvetica,Arial" font-size="14.00">Loki:3100</text>
</g>
<!-- Loki&#45;&gt;Grafana -->
<g id="edge5" class="edge">
<title>Loki&#45;&gt;Grafana</title>
<path fill="none" stroke="#8aa1b1" d="M438.79,-149.52C489.67,-157.15 582.09,-171.01 642.77,-180.12"/>
<polygon fill="#8aa1b1" stroke="#8aa1b1" points="642.56,-183.62 652.96,-181.64 643.59,-176.7 642.56,-183.62"/>
<text text-anchor="middle" x="550" y="-178.8" font-family="Times,serif" font-size="14.00">logs datasource</text>
</g>
<!-- Promtail -->
<g id="node5" class="node">
<title>Promtail</title>
<path fill="#f8f9fb" stroke="#aab3c0" d="M117,-137C117,-137 74,-137 74,-137 68,-137 62,-131 62,-125 62,-125 62,-113 62,-113 62,-107 68,-101 74,-101 74,-101 117,-101 117,-101 123,-101 129,-107 129,-113 129,-113 129,-125 129,-125 129,-131 123,-137 117,-137"/>
<text text-anchor="middle" x="95.5" y="-115.3" font-family="Inter,Helvetica,Arial" font-size="14.00">Promtail</text>
</g>
<!-- Promtail&#45;&gt;Loki -->
<g id="edge4" class="edge">
<title>Promtail&#45;&gt;Loki</title>
<path fill="none" stroke="#8aa1b1" d="M129.27,-121.7C183.17,-126.14 290.74,-135 352.83,-140.11"/>
<polygon fill="#8aa1b1" stroke="#8aa1b1" points="352.88,-143.63 363.13,-140.96 353.45,-136.65 352.88,-143.63"/>
<text text-anchor="middle" x="257.5" y="-140.8" font-family="Times,serif" font-size="14.00">logs</text>
</g>
<!-- NodeExp -->
<g id="node6" class="node">
<title>NodeExp</title>
<path fill="#f8f9fb" stroke="#aab3c0" d="M152,-191C152,-191 39,-191 39,-191 33,-191 27,-185 27,-179 27,-179 27,-167 27,-167 27,-161 33,-155 39,-155 39,-155 152,-155 152,-155 158,-155 164,-161 164,-167 164,-167 164,-179 164,-179 164,-185 158,-191 152,-191"/>
<text text-anchor="middle" x="95.5" y="-169.3" font-family="Inter,Helvetica,Arial" font-size="14.00">Node Exporter:9100</text>
</g>
<!-- NodeExp&#45;&gt;Prometheus -->
<g id="edge1" class="edge">
<title>NodeExp&#45;&gt;Prometheus</title>
<path fill="none" stroke="#8aa1b1" d="M164.12,-179.98C208.85,-185.1 268.68,-192.92 321,-203 323.64,-203.51 326.33,-204.05 329.04,-204.63"/>
<polygon fill="#8aa1b1" stroke="#8aa1b1" points="328.39,-208.07 338.91,-206.8 329.9,-201.23 328.39,-208.07"/>
<text text-anchor="middle" x="257.5" y="-206.8" font-family="Times,serif" font-size="14.00">host metrics</text>
</g>
<!-- cAdvisor -->
<g id="node7" class="node">
<title>cAdvisor</title>
<path fill="#f8f9fb" stroke="#aab3c0" d="M134.5,-299C134.5,-299 56.5,-299 56.5,-299 50.5,-299 44.5,-293 44.5,-287 44.5,-287 44.5,-275 44.5,-275 44.5,-269 50.5,-263 56.5,-263 56.5,-263 134.5,-263 134.5,-263 140.5,-263 146.5,-269 146.5,-275 146.5,-275 146.5,-287 146.5,-287 146.5,-293 140.5,-299 134.5,-299"/>
<text text-anchor="middle" x="95.5" y="-277.3" font-family="Inter,Helvetica,Arial" font-size="14.00">cAdvisor:8080</text>
</g>
<!-- cAdvisor&#45;&gt;Prometheus -->
<g id="edge2" class="edge">
<title>cAdvisor&#45;&gt;Prometheus</title>
<path fill="none" stroke="#8aa1b1" d="M146.58,-271.11C161.8,-268.14 178.58,-264.9 194,-262 250.38,-251.4 264.66,-249.8 321,-239 323.62,-238.5 326.28,-237.98 328.97,-237.46"/>
<polygon fill="#8aa1b1" stroke="#8aa1b1" points="329.65,-240.89 338.78,-235.53 328.29,-234.02 329.65,-240.89"/>
<text text-anchor="middle" x="257.5" y="-265.8" font-family="Times,serif" font-size="14.00">container metrics</text>
</g>
<!-- Blackbox -->
<g id="node8" class="node">
<title>Blackbox</title>
<path fill="#f8f9fb" stroke="#aab3c0" d="M163,-245C163,-245 28,-245 28,-245 22,-245 16,-239 16,-233 16,-233 16,-221 16,-221 16,-215 22,-209 28,-209 28,-209 163,-209 163,-209 169,-209 175,-215 175,-221 175,-221 175,-233 175,-233 175,-239 169,-245 163,-245"/>
<text text-anchor="middle" x="95.5" y="-223.3" font-family="Inter,Helvetica,Arial" font-size="14.00">Blackbox Exporter:9115</text>
</g>
<!-- Blackbox&#45;&gt;Prometheus -->
<g id="edge3" class="edge">
<title>Blackbox&#45;&gt;Prometheus</title>
<path fill="none" stroke="#8aa1b1" d="M175.25,-224.4C181.59,-224.25 187.9,-224.11 194,-224 238.74,-223.2 288.95,-222.95 328.6,-222.89"/>
<polygon fill="#8aa1b1" stroke="#8aa1b1" points="328.7,-226.39 338.7,-222.88 328.7,-219.39 328.7,-226.39"/>
<text text-anchor="middle" x="257.5" y="-227.8" font-family="Times,serif" font-size="14.00">probes</text>
</g>
<!-- User -->
<g id="node9" class="node">
<title>User</title>
<ellipse fill="#eef6ff" stroke="#7aa2d6" cx="95.5" cy="-354" rx="66.09" ry="18"/>
<text text-anchor="middle" x="95.5" y="-350.3" font-family="Inter,Helvetica,Arial" font-size="14.00">You (Browser)</text>
</g>
<!-- User&#45;&gt;Prometheus -->
<g id="edge9" class="edge">
<title>User&#45;&gt;Prometheus</title>
<path fill="none" stroke="#8aa1b1" d="M151.88,-344.21C160.43,-341.18 168.81,-337.2 176,-332 187.68,-323.55 182.1,-313.14 194,-305 241.71,-272.37 267.95,-299.95 321,-277 338.43,-269.46 356.04,-257.89 370.19,-247.39"/>
<polygon fill="#8aa1b1" stroke="#8aa1b1" points="372.7,-249.89 378.53,-241.04 368.46,-244.32 372.7,-249.89"/>
</g>
<!-- User&#45;&gt;Alertmanager -->
<g id="edge10" class="edge">
<title>User&#45;&gt;Alertmanager</title>
<path fill="none" stroke="#8aa1b1" d="M152.52,-363.35C251.13,-377.27 460.28,-395.31 619,-330 644,-319.71 666.36,-298.43 681.55,-281.16"/>
<polygon fill="#8aa1b1" stroke="#8aa1b1" points="684.62,-282.96 688.41,-273.07 679.28,-278.43 684.62,-282.96"/>
</g>
<!-- User&#45;&gt;Grafana -->
<g id="edge8" class="edge">
<title>User&#45;&gt;Grafana</title>
<path fill="none" stroke="#8aa1b1" d="M160.51,-350.12C283.54,-341.54 547.23,-317.31 619,-264 633.36,-253.33 624.85,-241.13 637,-228 642.28,-222.3 648.59,-217.15 655.16,-212.6"/>
<polygon fill="#8aa1b1" stroke="#8aa1b1" points="657.07,-215.54 663.57,-207.17 653.27,-209.66 657.07,-215.54"/>
</g>
<!-- Repo -->
<g id="node10" class="node">
<title>Repo</title>
<path fill="#f8f9fb" stroke="#aab3c0" d="M140,-54C140,-54 51,-54 51,-54 45,-54 39,-48 39,-42 39,-42 39,-28 39,-28 39,-22 45,-16 51,-16 51,-16 140,-16 140,-16 146,-16 152,-22 152,-28 152,-28 152,-42 152,-42 152,-48 146,-54 140,-54"/>
<text text-anchor="middle" x="95.5" y="-38.8" font-family="Inter,Helvetica,Arial" font-size="14.00">Repo</text>
<text text-anchor="middle" x="95.5" y="-23.8" font-family="Inter,Helvetica,Arial" font-size="14.00">(config as code)</text>
</g>
<!-- Repo&#45;&gt;Prometheus -->
<g id="edge11" class="edge">
<title>Repo&#45;&gt;Prometheus</title>
<path fill="none" stroke="#8aa1b1" d="M128.9,-54.16C147.42,-64.36 171.39,-76.35 194,-84 248.41,-102.41 278.57,-69.28 321,-108 342.51,-127.63 323.25,-146.51 339,-171 345.58,-181.23 354.78,-190.53 364.04,-198.35"/>
<polygon fill="#8aa1b1" stroke="#8aa1b1" points="362.13,-201.31 372.13,-204.83 366.51,-195.85 362.13,-201.31"/>
<text text-anchor="middle" x="257.5" y="-111.8" font-family="Times,serif" font-size="14.00">configs</text>
</g>
<!-- Repo&#45;&gt;Grafana -->
<g id="edge12" class="edge">
<title>Repo&#45;&gt;Grafana</title>
<path fill="none" stroke="#8aa1b1" d="M152.4,-34.32C198.15,-34.75 264.33,-37.66 321,-49 446.23,-74.06 585.09,-133.8 655.53,-166.56"/>
<polygon fill="#8aa1b1" stroke="#8aa1b1" points="654.46,-169.93 665,-171 657.43,-163.59 654.46,-169.93"/>
<text text-anchor="middle" x="401" y="-89.8" font-family="Times,serif" font-size="14.00">provisioning</text>
</g>
<!-- Repo&#45;&gt;Loki -->
<g id="edge13" class="edge">
<title>Repo&#45;&gt;Loki</title>
<path fill="none" stroke="#8aa1b1" stroke-dasharray="5,2" d="M152.02,-41.64C213.54,-49.28 306.08,-61.7 321,-69 344.36,-80.42 365.42,-101.21 379.9,-118.01"/>
<polygon fill="#8aa1b1" stroke="#8aa1b1" points="377.38,-120.44 386.47,-125.88 382.75,-115.96 377.38,-120.44"/>
<text text-anchor="middle" x="257.5" y="-72.8" font-family="Times,serif" font-size="14.00">configs</text>
</g>
</g>
</svg>
